PathFileType	4	(X/Y/Z)	Subject_003_static.trc	
DataRate	CameraRate	NumFrames	NumMarkers	Units	OrigDataRate	OrigDataStartFrame	OrigNumFrames	
100.00	100.00	14	24	mm	100.00	53	140	
Frame#	Time	LASI			RASI			LPSI			RPSI			LTHI			LKNE			LMKNE			LTIB			LANK			LHEE			LTOE			RTHI			RKNE			RMKNE			RTIB			RANK			RHEE			RTOE			LFEO			LFEP			LTIO			RFEO			RFEP			RTIO			
		X1	Y1	Z1	X2	Y2	Z2	X3	Y3	Z3	X4	Y4	Z4	X5	Y5	Z5	X6	Y6	Z6	X7	Y7	Z7	X8	Y8	Z8	X9	Y9	Z9	X10	Y10	Z10	X11	Y11	Z11	X12	Y12	Z12	X13	Y13	Z13	X14	Y14	Z14	X15	Y15	Z15	X16	Y16	Z16	X17	Y17	Z17	X18	Y18	Z18	X19	Y19	Z19	X20	Y20	Z20	X21	Y21	Z21	X22	Y22	Z22	X23	Y23	Z23	X24	Y24	Z24	

53	0.520	-837.66925	595.60205	16.68022	-778.46533	584.52734	185.08469	-926.46051	635.02332	111.29606	-903.27075	628.48602	167.06290	-908.67267	393.55948	-24.79415	-890.10938	304.88235	31.37754	-870.94427	301.57327	127.70255	-881.95990	147.52290	-16.55494	-881.50751	48.60143	39.47156	-931.06226	36.16611	64.73212	-787.34698	34.20037	75.54027	-806.34564	391.40549	274.41068	-826.85034	296.18253	240.30173	-872.44678	277.31897	149.13127	-882.70435	177.40121	338.23016	-966.19373	118.99408	348.10345	-1006.30792	158.74353	336.31265	-984.55188	28.40219	332.51208	-875.31940	308.99673	74.74029	-881.00037	553.14990	53.51200	-880.22449	48.17312	71.44296	-844.81305	293.54514	197.49240	-836.05878	544.88153	178.33475	-988.66052	120.44405	324.66437 
54	0.530	-837.83124	595.59869	16.61754	-778.52319	584.48480	184.98950	-926.56531	634.95685	111.30447	-903.43884	628.45734	167.10359	-908.72980	393.39343	-24.87568	-890.12152	304.84665	31.39815	-870.96490	301.53192	127.73120	-881.95215	147.47426	-16.50037	-881.50159	48.54266	39.55326	-931.02203	36.10047	64.80059	-787.29895	34.20000	75.59056	-806.41290	391.36917	274.39441	-826.87463	296.12280	240.24940	-872.51086	277.30966	148.98828	-882.48395	177.27924	337.96033	-966.20386	118.96397	348.19525	-1006.30920	158.73834	336.30563	-984.59723	28.28161	332.56940	-875.34760	308.98001	74.76456	-881.12848	553.12311	53.46410	-880.22528	48.12175	71.52503	-844.80383	293.47702	197.42657	-836.11127	544.82629	178.25769	-988.75562	120.53194	324.84555 
55	0.540	-837.98694	595.61865	16.61328	-778.61737	584.50354	184.93401	-926.78345	634.98688	111.28195	-903.66132	628.46783	167.07233	-908.95270	393.28555	-24.88290	-890.21100	304.86551	31.38389	-870.97583	301.53308	127.70564	-881.99030	147.46388	-16.50081	-881.51215	48.54660	39.53422	-931.06421	36.11514	64.78346	-787.33234	34.21827	75.57734	-806.43774	391.35150	274.25998	-826.83923	296.07211	240.11833	-872.59589	277.29239	149.03204	-882.86548	177.22719	338.26083	-966.07220	118.96793	348.14258	-1006.29572	158.76135	336.33710	-984.56830	28.28926	332.64139	-875.36700	308.99973	74.72627	-881.26270	553.12830	53.45946	-880.22437	48.12790	71.50555	-844.76801	293.43680	197.29466	-836.19293	544.82953	178.23398	-988.53778	120.37259	324.69952 
56	0.550	-838.25067	595.63025	16.54156	-778.71210	584.51355	184.79767	-926.95062	634.97894	111.26453	-903.83209	628.43707	167.07239	-909.02057	393.25558	-24.90177	-890.25916	304.89340	31.38214	-870.99554	301.57489	127.71920	-882.02466	147.46034	-16.49920	-881.49408	48.56087	39.54280	-930.99976	36.08126	64.81635	-787.29071	34.21031	75.61746	-806.51611	391.33984	274.17465	-826.86475	296.05386	240.05511	-872.64160	277.30261	148.99049	-882.85583	177.22385	338.24786	-966.06812	118.96227	348.17935	-1006.26910	158.79402	336.38312	-984.54718	28.33145	332.63690	-875.44299	309.04437	74.73246	-881.47827	553.12347	53.42381	-880.19879	48.14285	71.51384	-844.77893	293.41013	197.22589	-836.28210	544.82361	178.15253	-988.54071	120.36141	324.74271 
57	0.560	-838.46167	595.59229	16.49858	-778.85065	584.53625	184.78616	-927.06787	634.96094	111.22252	-903.97162	628.40582	167.01369	-909.04480	393.23132	-24.90240	-890.34045	304.91684	31.34812	-870.91290	301.65964	127.80284	-882.07092	147.48015	-16.50275	-881.46326	48.57430	39.53187	-931.04205	36.13868	64.78493	-787.32281	34.27661	75.58662	-806.54559	391.33957	274.02084	-826.89691	296.07401	239.94350	-872.75330	277.27185	148.96339	-882.84680	177.26649	338.17334	-966.18347	119.05550	348.17703	-1006.21735	158.81458	336.34085	-984.51434	28.49352	332.66165	-875.57898	309.06769	74.71710	-881.66382	553.09106	53.43266	-880.16113	48.15755	71.50265	-844.86157	293.44391	197.13455	-836.42639	544.83862	178.14951	-988.68262	120.48975	324.76794 
58	0.570	-838.67932	595.55652	16.45828	-779.01654	584.55804	184.66919	-927.21710	634.96973	111.19363	-904.12854	628.39111	167.00261	-909.18457	393.66541	-25.29684	-890.40240	304.93793	31.30833	-870.99567	301.61993	127.66393	-882.08539	147.47755	-16.50592	-881.48993	48.58085	39.53471	-931.05121	36.13028	64.76820	-787.29681	34.28267	75.60862	-806.59235	391.36499	273.85233	-826.95288	296.09570	239.89813	-872.80841	277.25159	148.88992	-882.40887	177.30594	337.69620	-966.12585	119.02008	348.12064	-1006.24725	158.79678	336.30649	-984.55219	28.52695	332.61838	-875.70001	309.09808	74.69646	-881.87512	553.06818	53.39653	-880.20978	48.16785	71.50642	-844.97968	293.46109	197.11565	-836.58472	544.85583	178.09689	-988.72528	120.59779	324.81769 
59	0.580	-838.85736	595.64429	16.37360	-779.24847	584.56750	184.60480	-927.40527	634.95361	111.19471	-904.25989	628.39307	166.93367	-909.22943	393.68085	-25.33294	-890.49066	304.97073	31.25649	-871.02002	301.62393	127.60860	-882.14465	147.50937	-16.59615	-881.51703	48.61662	39.46735	-931.06989	36.13987	64.69987	-787.35339	34.32483	75.52325	-806.68433	391.42740	273.78497	-826.94720	296.10019	239.74954	-872.88837	277.28625	148.79530	-882.45978	177.37938	337.64572	-966.17371	119.07974	348.09418	-1006.24048	158.77740	336.26398	-984.57605	28.52397	332.57391	-875.82813	309.14801	74.65649	-882.05847	553.13037	53.27795	-880.24030	48.20084	71.43917	-844.94635	293.45432	196.95607	-836.80963	544.86035	177.98955	-988.76245	120.63288	324.77914 
60	0.590	-839.00757	595.64716	16.31024	-779.43066	584.52930	184.56024	-927.60144	634.93585	111.17460	-904.35291	628.37781	166.90895	-909.39795	393.40237	-25.11443	-890.50751	304.93738	31.24012	-871.06635	301.60583	127.59506	-882.17780	147.48250	-16.62071	-881.53876	48.60168	39.47807	-931.07428	36.09733	64.68414	-787.32910	34.30294	75.49310	-806.74048	391.34811	273.72308	-826.99176	296.09506	239.66766	-872.92169	277.26443	148.75269	-882.40894	177.33321	337.57089	-966.17175	119.09845	348.10760	-1006.24731	158.78429	336.25708	-984.60229	28.36422	332.56253	-875.73596	309.13278	74.60138	-882.22028	553.13171	53.20226	-880.23724	48.19299	71.44897	-845.01624	293.44263	196.88524	-836.99744	544.83154	177.92134	-988.79370	120.68429	324.82709 
61	0.600	-839.14978	595.69495	16.21043	-779.64258	584.52411	184.52998	-927.67645	634.84753	111.14874	-904.43164	628.35370	166.87794	-909.50214	393.38980	-25.12464	-890.53192	304.93759	31.22821	-871.05542	301.58115	127.55825	-882.16919	147.50026	-16.64882	-881.49414	48.62408	39.43438	-931.00604	36.05433	64.69434	-787.30859	34.35518	75.46932	-806.95142	391.32596	273.67719	-827.00006	296.09311	239.61456	-872.93030	277.26532	148.68234	-882.43555	177.33969	337.54703	-966.06909	119.01957	348.03772	-1006.20441	158.78215	336.26373	-984.53046	28.48269	332.62372	-875.73242	309.15817	74.57749	-882.36554	553.15594	53.08590	-880.18311	48.21302	71.40488	-844.93713	293.41357	196.79716	-837.20557	544.81873	177.82526	-988.66052	120.54931	324.72382 
62	0.610	-839.34503	595.71619	16.13909	-779.68140	584.53357	184.44861	-927.86877	634.80853	111.12761	-904.55585	628.30743	166.84140	-909.65662	393.35342	-25.11707	-890.61658	304.92825	31.18789	-871.06140	301.48331	127.27634	-882.21375	147.48581	-16.68134	-881.52576	48.60206	39.43019	-931.05164	36.01351	64.68021	-787.32794	34.34028	75.44334	-806.92059	391.28436	273.63593	-826.99939	296.12195	239.52190	-872.93060	277.22903	148.61195	-882.39423	177.34297	337.49652	-965.96277	119.00640	347.99576	-1006.23914	158.79626	336.24701	-984.53601	28.48224	332.62903	-875.77753	309.14951	74.52361	-882.49896	553.14099	53.05858	-880.21118	48.19712	71.40060	-844.95361	293.44547	196.71147	-837.23383	544.79767	177.75940	-988.55902	120.52052	324.68552 
63	0.620	-839.58228	595.68427	16.09967	-779.71094	584.50336	184.37564	-928.02997	634.78821	111.13988	-904.72845	628.25513	166.86909	-909.81830	393.29758	-25.08494	-890.67249	304.87378	31.16555	-871.11877	301.52682	127.53046	-882.31958	147.39854	-16.66484	-881.59589	48.58557	39.44679	-931.07123	36.02472	64.70006	-787.37891	34.32895	75.49096	-806.94849	391.24899	273.59882	-827.02771	296.10709	239.46191	-872.95569	277.22733	148.57901	-882.38519	177.35658	337.47720	-965.97723	119.02429	348.01004	-1006.21429	158.77631	336.25632	-984.53656	28.47269	332.63998	-875.79071	309.09384	74.48670	-882.67780	553.09570	53.08374	-880.25488	48.18639	71.41619	-844.98102	293.43539	196.65079	-837.26807	544.75562	177.73221	-988.58087	120.53825	324.70691 
64	0.630	-839.73383	595.62494	16.04900	-779.73151	584.47992	184.30234	-928.14392	634.77277	111.13828	-904.91321	628.28119	166.86832	-909.83234	393.24692	-25.09015	-890.66199	304.81146	31.18227	-871.15552	301.53912	127.55329	-882.24457	147.40430	-16.65788	-881.61182	48.56255	39.48363	-931.07825	35.97567	64.72399	-787.33441	34.27952	75.51849	-807.15094	391.31857	273.72159	-827.03223	296.07040	239.42432	-872.96667	277.16769	148.56053	-882.77350	177.20590	337.83432	-966.01001	119.04678	348.06708	-1006.28387	158.78592	336.29248	-984.59680	28.28132	332.62967	-875.79944	309.04214	74.50898	-882.80011	553.04596	53.08451	-880.31152	48.16576	71.45475	-844.81915	293.38794	196.54445	-837.29840	544.73340	177.70128	-988.54730	120.45734	324.69339 
65	0.640	-839.89716	595.60883	15.96282	-779.76978	584.48572	184.19012	-928.23651	634.75714	111.08965	-905.02216	628.27271	166.84543	-910.00616	393.10916	-25.09069	-890.76019	304.78333	31.16102	-871.11194	301.48007	127.67720	-882.28052	147.38560	-16.69991	-881.58844	48.56390	39.46277	-931.03986	35.94414	64.73568	-787.33673	34.27645	75.53333	-807.04602	391.13281	273.38565	-827.03632	296.04825	239.34457	-873.00488	277.09833	148.50435	-882.58020	177.30563	337.61899	-966.05463	119.01171	348.00821	-1006.17224	158.76059	336.26248	-984.52783	28.37117	332.64914	-875.85321	309.01984	74.47191	-882.92798	553.02551	53.03945	-880.27460	48.16922	71.43335	-844.97632	293.37347	196.52808	-837.33765	544.73010	177.62497	-988.62451	120.46544	324.66855 
66	0.650	-840.03723	595.59021	15.89479	-779.79523	584.49786	184.06267	-928.45313	634.72937	111.05106	-905.15076	628.23193	166.82672	-910.06512	393.04031	-25.10391	-890.82483	304.71576	31.11735	-871.09644	301.48819	127.22028	-882.29608	147.30171	-16.68507	-881.58661	48.48448	39.49161	-931.05145	35.91116	64.72144	-787.32892	34.21735	75.54544	-807.04224	391.09933	273.32037	-827.02600	296.03287	239.29103	-872.93652	276.99139	148.43925	-882.52576	177.28136	337.58218	-966.02826	119.00699	348.00116	-1006.16797	158.74049	336.27109	-984.55457	28.24766	332.60913	-875.92108	308.95453	74.42912	-883.02100	552.98083	52.99021	-880.27643	48.09900	71.46246	-844.96631	293.35245	196.47501	-837.34094	544.70801	177.54437	-988.60931	120.47026	324.67294 
